<svg xmlns="http://www.w3.org/2000/svg" version="1.1" viewBox="-5.0 -10.0 110.0 135.0">
 <path d="m92.984 73.438-1.5664-3.6836c-0.88281-2.0781-2.7227-3.6328-4.9258-4.1523l-15.105-3.5625c-2.4531-0.59375-5.0703 0.17969-6.8164 2.0156l-5.2617 5.4102c-12.16-5.1953-23.738-16.539-28.742-28.875l5.4062-5.1445c1.8164-1.7266 2.5898-4.3281 2.0234-6.8086l-3.5781-15.094c-0.51562-2.2031-2.0625-4.0469-4.1289-4.9258l-3.6992-1.5859c-3.168-1.3398-6.7188-0.92969-9.4844 1.0859-2.2578 1.6367-5.5664 4.3398-8.4961 7.9336-3.5625 4.2617-2.3242 9.3633-1.1172 14.562 0.51172 2.7383 4.543 2.3828 4.5742-0.39844-0.52734-4.0039-2.5469-7.9375 0.10938-11.246 2.6172-3.2109 5.5938-5.6406 7.6367-7.1211 1.4492-1.0586 3.3164-1.2734 4.9648-0.57422l3.6953 1.5859c0.73828 0.3125 1.2656 0.94531 1.4531 1.7422l3.5742 15.082c0.20312 0.88672-0.070312 1.8164-0.71094 2.4258l-5.3945 5.1367c-3.3281 3.7969-0.40625 6.2539 1.8242 10.93 5.3203 9.5039 13.148 17.324 22.637 22.621 4.7539 2.293 7.1211 5.1055 10.918 1.8359l5.1289-5.3945c0.61719-0.64844 1.5352-0.92578 2.4102-0.71094l15.113 3.5625c0.78125 0.18359 1.4297 0.73438 1.7422 1.4688l1.5664 3.6875c0.70312 1.6484 0.49219 3.5078-0.55859 4.9609-1.4727 2.0312-3.9062 5-7.1133 7.6289-1.332 1.082-3.1211 1.5547-4.8906 1.3047-1.8945-0.28516-3.75-0.64062-5.7539-1.1094-1.1523-0.40234-2.4219 0.16016-2.8906 1.2969-0.48438 1.1758 0.078125 2.5234 1.2539 3.0078 4.9961 1.3164 10.887 2.7578 15.195-0.92969 5.8555-5.4453 11.906-10.441 9-17.965z"/>
 <path d="m61.617 85.395c-21.977-7.9336-39.129-25.113-47.059-47.137-1.0508-2.8086-5.3242-1.3242-4.3359 1.5625 8.3984 23.312 26.559 41.504 49.828 49.906 2.8359 0.97656 4.418-3.2383 1.5664-4.3359z"/>
 <path d="m50.219 23.758c13.789 0.41016 25.633 12.258 26.047 26.047 0.19141 3.0156 4.6992 2.8125 4.6016-0.21875-0.48047-16.102-14.332-29.953-30.434-30.43-3.0039-0.10547-3.2539 4.4062-0.21484 4.6016z"/>
 <path d="m49.797 32.957c4.5234 0.21094 8.7773 2.0898 11.98 5.2891 3.1992 3.2031 5.082 7.4531 5.2891 11.977 0.1875 3.0195 4.6953 2.8164 4.6016-0.21484-0.32812-11.438-10.223-21.328-21.66-21.656-3.0078-0.046874-3.25 4.3906-0.21094 4.6016z"/>
 <path d="m49.367 42.164c4.4805 0.12109 8.3672 4.0078 8.4883 8.4883 0.054687 1.2344 1.0742 2.2031 2.3008 2.2031 5.0586-0.46875 0.61719-9.5234-1.6406-11.352-1.8008-2.2305-10.785-6.6523-11.348-1.7422-0.058594 1.2695 0.92578 2.3477 2.1992 2.4023z"/>
</svg>